<?xml version="1.0" encoding="utf-8"?>
<!-- Generator: Adobe Illustrator 28.2.0, SVG Export Plug-In . SVG Version: 6.00 Build 0)  -->
<svg version="1.1" id="Layer_1" xmlns="http://www.w3.org/2000/svg" xmlns:xlink="http://www.w3.org/1999/xlink" x="0px" y="0px"
	 viewBox="0 0 211.7 395.5" style="enable-background:new 0 0 211.7 395.5;" xml:space="preserve">
<style type="text/css">
	.st0{fill:#231F20;}
	.st1{fill:#D59A29;}
	.st2{fill:#99948C;}
	.st3{fill:#B3B4B4;}
</style>
<path class="st0" d="M204.6,395.1H7.6c-3.8,0-6.9-3.1-6.9-6.9v-18.5h210.6c0.2,0,0.3,0.1,0.3,0.3v18.2
	C211.5,392,208.4,395.1,204.6,395.1z"/>
<path class="st0" d="M211.5,38.7v18.5H0.9c-0.2,0-0.3-0.1-0.3-0.3V38.7c0-3.8,3.1-6.9,6.9-6.9h55.6V0h93v31.8h48.5
	C208.4,31.8,211.5,34.9,211.5,38.7z"/>
<g>
	<g>
		<rect x="3.7" y="57.3" width="204.8" height="312.5"/>
		<rect x="3.7" y="88.7" class="st1" width="31.9" height="280.9"/>
		<g>
			<rect x="187.8" y="88.7" class="st2" width="20.7" height="32.8"/>
		</g>
		<g>
			<rect x="187.8" y="209.7" class="st2" width="20.7" height="92.4"/>
		</g>
	</g>
	<g>
		<path class="st3" d="M127.7,345.6H84.5l0-5.2l38.5,0v-20.1h4.6L127.7,345.6z"/>
		<path class="st3" d="M106.1,275.8c4.6,0,8.5,0.8,11.8,2.5c3.3,1.6,5.9,3.9,7.7,6.8c1.8,2.9,2.7,6.1,2.7,9.8c0,3.7-0.9,7-2.7,9.8
			c-1.8,2.9-4.4,5.1-7.7,6.8c-3.3,1.6-7.3,2.5-11.8,2.5s-8.5-0.8-11.8-2.5c-3.3-1.6-5.9-3.9-7.7-6.8c-1.8-2.9-2.7-6.1-2.7-9.8
			c0-3.7,0.9-7,2.7-9.8c1.8-2.9,4.4-5.1,7.7-6.8C97.6,276.6,101.5,275.8,106.1,275.8z M106.1,280.8c-3.7,0-6.9,0.6-9.5,1.9
			c-2.6,1.2-4.5,2.9-5.8,5c-1.3,2.1-2,4.5-2,7.1c0,2.6,0.7,5,2,7.1c1.3,2.1,3.3,3.8,5.8,5c2.6,1.2,5.7,1.9,9.5,1.9
			c3.7,0,6.9-0.6,9.5-1.9c2.6-1.2,4.5-2.9,5.8-5c1.3-2.1,2-4.5,2-7.1c0-2.6-0.7-5-2-7.1c-1.3-2.1-3.3-3.8-5.8-5
			C113,281.5,109.8,280.8,106.1,280.8z"/>
		<path class="st3" d="M127.7,265.2v5.5l-43.2-15.9l0-5.4l43.2-15.9l0,5.5L91.3,252v0.3L127.7,265.2z M110.8,263.2l0-22.1h4.6
			l0,22.1H110.8z"/>
		<path class="st3" d="M127.7,213.6v13.3l-43.2,0V213c0-4.2,0.9-7.8,2.6-10.8c1.7-3,4.2-5.3,7.4-6.9c3.2-1.6,7.1-2.4,11.5-2.4
			c4.5,0,8.4,0.8,11.6,2.4s5.7,3.9,7.5,7C126.8,205.4,127.7,209.2,127.7,213.6z M123,221.6v-7.8c0-3.6-0.7-6.5-2.1-8.9
			c-1.4-2.3-3.3-4.1-5.9-5.2c-2.5-1.2-5.6-1.7-9.1-1.7c-3.5,0-6.5,0.6-9,1.7c-2.5,1.1-4.5,2.8-5.8,5.1c-1.4,2.3-2,5.1-2,8.5v8.3
			L123,221.6z"/>
		<path class="st3" d="M84.5,179l43.2,0v5.2l-43.2,0L84.5,179z"/>
		<path class="st3" d="M84.5,134.3l43.2,0v5.1l-33.9,23.5v0.4h33.9l0,5.2l-43.2,0v-5.1l34-23.6v-0.4l-34,0V134.3z"/>
		<path class="st3" d="M98,94.3c-1.4,0.5-2.7,1.1-3.8,1.8c-1.1,0.8-2.1,1.6-2.9,2.7c-0.8,1-1.4,2.2-1.8,3.5
			c-0.4,1.3-0.6,2.7-0.6,4.3c0,2.6,0.7,4.9,2,7c1.3,2.1,3.3,3.8,5.8,5c2.6,1.2,5.7,1.9,9.5,1.9c3.7,0,6.9-0.6,9.5-1.9
			c2.6-1.3,4.5-2.9,5.8-5.1c1.3-2.1,2-4.5,2-7.2c0-2.5-0.5-4.7-1.6-6.5c-1.1-1.9-2.6-3.4-4.5-4.4s-4.2-1.6-6.9-1.6l0.3-1.6l0,13
			h-4.6l0-16.4h4.6c3.6,0,6.6,0.8,9.3,2.3c2.6,1.5,4.7,3.6,6.1,6.2c1.4,2.6,2.2,5.7,2.2,9.1c0,3.8-0.9,7.2-2.7,10.1
			c-1.8,2.9-4.4,5.1-7.7,6.7c-3.3,1.6-7.3,2.4-11.8,2.4c-3.4,0-6.5-0.5-9.2-1.4c-2.7-0.9-5.1-2.2-7-3.9c-1.9-1.7-3.4-3.7-4.4-6
			c-1-2.3-1.5-4.8-1.5-7.6c0-2.3,0.3-4.4,1-6.4c0.7-2,1.6-3.7,2.9-5.3c1.2-1.6,2.7-2.9,4.4-3.9c1.7-1,3.6-1.8,5.7-2.1V94.3z"/>
	</g>
</g>
</svg>
