<?xml version="1.0" encoding="utf-8"?>
<!-- Generator: Adobe Illustrator 28.2.0, SVG Export Plug-In . SVG Version: 6.00 Build 0)  -->
<svg version="1.1" id="Layer_1" xmlns="http://www.w3.org/2000/svg" xmlns:xlink="http://www.w3.org/1999/xlink" x="0px" y="0px"
	 viewBox="0 0 1514.1 253.5" style="enable-background:new 0 0 1514.1 253.5;" xml:space="preserve">
<style type="text/css">
	.st0{fill:#934B3F;}
</style>
<path class="st0" d="M1514.1,18.8v-5.6c0-7.3-5.9-13.2-13.2-13.2H13.2C5.9,0,0,5.9,0,13.2v227.1c0,7.3,5.9,13.2,13.2,13.2h1285.9
	c-1.5-6.1-2.4-12.4-2.8-18.8c-0.6,0.2-1.2,0.3-1.9,0.3h-4.3c-2.9,0-5.2-2.3-5.2-5.2v-15.5c0-2.9,2.3-5.2,5.2-5.2h4.3
	c1.2,0,2.2,0.4,3.1,1c8.4-51.8,53.4-91.3,107.6-91.3h109V44.2c-2-0.7-3.5-2.6-3.5-4.9V23.7C1510.6,21.4,1512.1,19.5,1514.1,18.8z
	 M42.4,229.8c0,2.9-2.3,5.2-5.2,5.2H33c-2.9,0-5.2-2.3-5.2-5.2v-15.5c0-2.9,2.3-5.2,5.2-5.2h4.3c2.9,0,5.2,2.3,5.2,5.2V229.8z
	 M42.4,39.2c0,2.9-2.3,5.2-5.2,5.2H33c-2.9,0-5.2-2.3-5.2-5.2V23.7c0-2.9,2.3-5.2,5.2-5.2h4.3c2.9,0,5.2,2.3,5.2,5.2V39.2z
	 M74.7,229.8c0,2.9-2.3,5.2-5.2,5.2h-4.3c-2.9,0-5.2-2.3-5.2-5.2v-15.5c0-2.9,2.3-5.2,5.2-5.2h4.3c2.9,0,5.2,2.3,5.2,5.2V229.8z
	 M74.7,39.2c0,2.9-2.3,5.2-5.2,5.2h-4.3c-2.9,0-5.2-2.3-5.2-5.2V23.7c0-2.9,2.3-5.2,5.2-5.2h4.3c2.9,0,5.2,2.3,5.2,5.2V39.2z
	 M106.9,229.8c0,2.9-2.3,5.2-5.2,5.2h-4.3c-2.9,0-5.2-2.3-5.2-5.2v-15.5c0-2.9,2.3-5.2,5.2-5.2h4.3c2.9,0,5.2,2.3,5.2,5.2V229.8z
	 M106.9,39.2c0,2.9-2.3,5.2-5.2,5.2h-4.3c-2.9,0-5.2-2.3-5.2-5.2V23.7c0-2.9,2.3-5.2,5.2-5.2h4.3c2.9,0,5.2,2.3,5.2,5.2V39.2z
	 M139.2,229.8c0,2.9-2.3,5.2-5.2,5.2h-4.3c-2.9,0-5.2-2.3-5.2-5.2v-15.5c0-2.9,2.3-5.2,5.2-5.2h4.3c2.9,0,5.2,2.3,5.2,5.2V229.8z
	 M139.2,39.2c0,2.9-2.3,5.2-5.2,5.2h-4.3c-2.9,0-5.2-2.3-5.2-5.2V23.7c0-2.9,2.3-5.2,5.2-5.2h4.3c2.9,0,5.2,2.3,5.2,5.2V39.2z
	 M171.4,229.8c0,2.9-2.3,5.2-5.2,5.2h-4.3c-2.9,0-5.2-2.3-5.2-5.2v-15.5c0-2.9,2.3-5.2,5.2-5.2h4.3c2.9,0,5.2,2.3,5.2,5.2V229.8z
	 M171.4,39.2c0,2.9-2.3,5.2-5.2,5.2h-4.3c-2.9,0-5.2-2.3-5.2-5.2V23.7c0-2.9,2.3-5.2,5.2-5.2h4.3c2.9,0,5.2,2.3,5.2,5.2V39.2z
	 M203.6,229.8c0,2.9-2.3,5.2-5.2,5.2h-4.3c-2.9,0-5.2-2.3-5.2-5.2v-15.5c0-2.9,2.3-5.2,5.2-5.2h4.3c2.9,0,5.2,2.3,5.2,5.2V229.8z
	 M203.6,39.2c0,2.9-2.3,5.2-5.2,5.2h-4.3c-2.9,0-5.2-2.3-5.2-5.2V23.7c0-2.9,2.3-5.2,5.2-5.2h4.3c2.9,0,5.2,2.3,5.2,5.2V39.2z
	 M235.9,229.8c0,2.9-2.3,5.2-5.2,5.2h-4.3c-2.9,0-5.2-2.3-5.2-5.2v-15.5c0-2.9,2.3-5.2,5.2-5.2h4.3c2.9,0,5.2,2.3,5.2,5.2V229.8z
	 M235.9,39.2c0,2.9-2.3,5.2-5.2,5.2h-4.3c-2.9,0-5.2-2.3-5.2-5.2V23.7c0-2.9,2.3-5.2,5.2-5.2h4.3c2.9,0,5.2,2.3,5.2,5.2V39.2z
	 M268.1,229.8c0,2.9-2.3,5.2-5.2,5.2h-4.3c-2.9,0-5.2-2.3-5.2-5.2v-15.5c0-2.9,2.3-5.2,5.2-5.2h4.3c2.9,0,5.2,2.3,5.2,5.2V229.8z
	 M268.1,39.2c0,2.9-2.3,5.2-5.2,5.2h-4.3c-2.9,0-5.2-2.3-5.2-5.2V23.7c0-2.9,2.3-5.2,5.2-5.2h4.3c2.9,0,5.2,2.3,5.2,5.2V39.2z
	 M300.3,229.8c0,2.9-2.3,5.2-5.2,5.2h-4.3c-2.9,0-5.2-2.3-5.2-5.2v-15.5c0-2.9,2.3-5.2,5.2-5.2h4.3c2.9,0,5.2,2.3,5.2,5.2V229.8z
	 M300.3,39.2c0,2.9-2.3,5.2-5.2,5.2h-4.3c-2.9,0-5.2-2.3-5.2-5.2V23.7c0-2.9,2.3-5.2,5.2-5.2h4.3c2.9,0,5.2,2.3,5.2,5.2V39.2z
	 M332.6,229.8c0,2.9-2.3,5.2-5.2,5.2h-4.3c-2.9,0-5.2-2.3-5.2-5.2v-15.5c0-2.9,2.3-5.2,5.2-5.2h4.3c2.9,0,5.2,2.3,5.2,5.2V229.8z
	 M332.6,39.2c0,2.9-2.3,5.2-5.2,5.2h-4.3c-2.9,0-5.2-2.3-5.2-5.2V23.7c0-2.9,2.3-5.2,5.2-5.2h4.3c2.9,0,5.2,2.3,5.2,5.2V39.2z
	 M364.8,229.8c0,2.9-2.3,5.2-5.2,5.2h-4.3c-2.9,0-5.2-2.3-5.2-5.2v-15.5c0-2.9,2.3-5.2,5.2-5.2h4.3c2.9,0,5.2,2.3,5.2,5.2V229.8z
	 M364.8,39.2c0,2.9-2.3,5.2-5.2,5.2h-4.3c-2.9,0-5.2-2.3-5.2-5.2V23.7c0-2.9,2.3-5.2,5.2-5.2h4.3c2.9,0,5.2,2.3,5.2,5.2V39.2z
	 M397,229.8c0,2.9-2.3,5.2-5.2,5.2h-4.3c-2.9,0-5.2-2.3-5.2-5.2v-15.5c0-2.9,2.3-5.2,5.2-5.2h4.3c2.9,0,5.2,2.3,5.2,5.2V229.8z
	 M397,39.2c0,2.9-2.3,5.2-5.2,5.2h-4.3c-2.9,0-5.2-2.3-5.2-5.2V23.7c0-2.9,2.3-5.2,5.2-5.2h4.3c2.9,0,5.2,2.3,5.2,5.2V39.2z
	 M429.3,229.8c0,2.9-2.3,5.2-5.2,5.2h-4.3c-2.9,0-5.2-2.3-5.2-5.2v-15.5c0-2.9,2.3-5.2,5.2-5.2h4.3c2.9,0,5.2,2.3,5.2,5.2V229.8z
	 M429.3,39.2c0,2.9-2.3,5.2-5.2,5.2h-4.3c-2.9,0-5.2-2.3-5.2-5.2V23.7c0-2.9,2.3-5.2,5.2-5.2h4.3c2.9,0,5.2,2.3,5.2,5.2V39.2z
	 M461.5,229.8c0,2.9-2.3,5.2-5.2,5.2H452c-2.9,0-5.2-2.3-5.2-5.2v-15.5c0-2.9,2.3-5.2,5.2-5.2h4.3c2.9,0,5.2,2.3,5.2,5.2V229.8z
	 M461.5,39.2c0,2.9-2.3,5.2-5.2,5.2H452c-2.9,0-5.2-2.3-5.2-5.2V23.7c0-2.9,2.3-5.2,5.2-5.2h4.3c2.9,0,5.2,2.3,5.2,5.2V39.2z
	 M493.8,229.8c0,2.9-2.3,5.2-5.2,5.2h-4.3c-2.9,0-5.2-2.3-5.2-5.2v-15.5c0-2.9,2.3-5.2,5.2-5.2h4.3c2.9,0,5.2,2.3,5.2,5.2V229.8z
	 M493.8,39.2c0,2.9-2.3,5.2-5.2,5.2h-4.3c-2.9,0-5.2-2.3-5.2-5.2V23.7c0-2.9,2.3-5.2,5.2-5.2h4.3c2.9,0,5.2,2.3,5.2,5.2V39.2z
	 M526,229.8c0,2.9-2.3,5.2-5.2,5.2h-4.3c-2.9,0-5.2-2.3-5.2-5.2v-15.5c0-2.9,2.3-5.2,5.2-5.2h4.3c2.9,0,5.2,2.3,5.2,5.2V229.8z
	 M526,39.2c0,2.9-2.3,5.2-5.2,5.2h-4.3c-2.9,0-5.2-2.3-5.2-5.2V23.7c0-2.9,2.3-5.2,5.2-5.2h4.3c2.9,0,5.2,2.3,5.2,5.2V39.2z
	 M558.2,229.8c0,2.9-2.3,5.2-5.2,5.2h-4.3c-2.9,0-5.2-2.3-5.2-5.2v-15.5c0-2.9,2.3-5.2,5.2-5.2h4.3c2.9,0,5.2,2.3,5.2,5.2V229.8z
	 M558.2,39.2c0,2.9-2.3,5.2-5.2,5.2h-4.3c-2.9,0-5.2-2.3-5.2-5.2V23.7c0-2.9,2.3-5.2,5.2-5.2h4.3c2.9,0,5.2,2.3,5.2,5.2V39.2z
	 M590.5,229.8c0,2.9-2.3,5.2-5.2,5.2H581c-2.9,0-5.2-2.3-5.2-5.2v-15.5c0-2.9,2.3-5.2,5.2-5.2h4.3c2.9,0,5.2,2.3,5.2,5.2V229.8z
	 M590.5,39.2c0,2.9-2.3,5.2-5.2,5.2H581c-2.9,0-5.2-2.3-5.2-5.2V23.7c0-2.9,2.3-5.2,5.2-5.2h4.3c2.9,0,5.2,2.3,5.2,5.2V39.2z
	 M622.7,229.8c0,2.9-2.3,5.2-5.2,5.2h-4.3c-2.9,0-5.2-2.3-5.2-5.2v-15.5c0-2.9,2.3-5.2,5.2-5.2h4.3c2.9,0,5.2,2.3,5.2,5.2V229.8z
	 M622.7,39.2c0,2.9-2.3,5.2-5.2,5.2h-4.3c-2.9,0-5.2-2.3-5.2-5.2V23.7c0-2.9,2.3-5.2,5.2-5.2h4.3c2.9,0,5.2,2.3,5.2,5.2V39.2z
	 M654.9,229.8c0,2.9-2.3,5.2-5.2,5.2h-4.3c-2.9,0-5.2-2.3-5.2-5.2v-15.5c0-2.9,2.3-5.2,5.2-5.2h4.3c2.9,0,5.2,2.3,5.2,5.2V229.8z
	 M654.9,39.2c0,2.9-2.3,5.2-5.2,5.2h-4.3c-2.9,0-5.2-2.3-5.2-5.2V23.7c0-2.9,2.3-5.2,5.2-5.2h4.3c2.9,0,5.2,2.3,5.2,5.2V39.2z
	 M687.2,229.8c0,2.9-2.3,5.2-5.2,5.2h-4.3c-2.9,0-5.2-2.3-5.2-5.2v-15.5c0-2.9,2.3-5.2,5.2-5.2h4.3c2.9,0,5.2,2.3,5.2,5.2V229.8z
	 M687.2,39.2c0,2.9-2.3,5.2-5.2,5.2h-4.3c-2.9,0-5.2-2.3-5.2-5.2V23.7c0-2.9,2.3-5.2,5.2-5.2h4.3c2.9,0,5.2,2.3,5.2,5.2V39.2z
	 M719.4,229.8c0,2.9-2.3,5.2-5.2,5.2h-4.3c-2.9,0-5.2-2.3-5.2-5.2v-15.5c0-2.9,2.3-5.2,5.2-5.2h4.3c2.9,0,5.2,2.3,5.2,5.2V229.8z
	 M719.4,39.2c0,2.9-2.3,5.2-5.2,5.2h-4.3c-2.9,0-5.2-2.3-5.2-5.2V23.7c0-2.9,2.3-5.2,5.2-5.2h4.3c2.9,0,5.2,2.3,5.2,5.2V39.2z
	 M751.6,229.8c0,2.9-2.3,5.2-5.2,5.2h-4.3c-2.9,0-5.2-2.3-5.2-5.2v-15.5c0-2.9,2.3-5.2,5.2-5.2h4.3c2.9,0,5.2,2.3,5.2,5.2V229.8z
	 M751.6,39.2c0,2.9-2.3,5.2-5.2,5.2h-4.3c-2.9,0-5.2-2.3-5.2-5.2V23.7c0-2.9,2.3-5.2,5.2-5.2h4.3c2.9,0,5.2,2.3,5.2,5.2V39.2z
	 M783.9,229.8c0,2.9-2.3,5.2-5.2,5.2h-4.3c-2.9,0-5.2-2.3-5.2-5.2v-15.5c0-2.9,2.3-5.2,5.2-5.2h4.3c2.9,0,5.2,2.3,5.2,5.2V229.8z
	 M783.9,39.2c0,2.9-2.3,5.2-5.2,5.2h-4.3c-2.9,0-5.2-2.3-5.2-5.2V23.7c0-2.9,2.3-5.2,5.2-5.2h4.3c2.9,0,5.2,2.3,5.2,5.2V39.2z
	 M816.1,229.8c0,2.9-2.3,5.2-5.2,5.2h-4.3c-2.9,0-5.2-2.3-5.2-5.2v-15.5c0-2.9,2.3-5.2,5.2-5.2h4.3c2.9,0,5.2,2.3,5.2,5.2V229.8z
	 M816.1,39.2c0,2.9-2.3,5.2-5.2,5.2h-4.3c-2.9,0-5.2-2.3-5.2-5.2V23.7c0-2.9,2.3-5.2,5.2-5.2h4.3c2.9,0,5.2,2.3,5.2,5.2V39.2z
	 M848.3,229.8c0,2.9-2.3,5.2-5.2,5.2h-4.3c-2.9,0-5.2-2.3-5.2-5.2v-15.5c0-2.9,2.3-5.2,5.2-5.2h4.3c2.9,0,5.2,2.3,5.2,5.2V229.8z
	 M848.3,39.2c0,2.9-2.3,5.2-5.2,5.2h-4.3c-2.9,0-5.2-2.3-5.2-5.2V23.7c0-2.9,2.3-5.2,5.2-5.2h4.3c2.9,0,5.2,2.3,5.2,5.2V39.2z
	 M880.6,229.8c0,2.9-2.3,5.2-5.2,5.2h-4.3c-2.9,0-5.2-2.3-5.2-5.2v-15.5c0-2.9,2.3-5.2,5.2-5.2h4.3c2.9,0,5.2,2.3,5.2,5.2V229.8z
	 M880.6,39.2c0,2.9-2.3,5.2-5.2,5.2h-4.3c-2.9,0-5.2-2.3-5.2-5.2V23.7c0-2.9,2.3-5.2,5.2-5.2h4.3c2.9,0,5.2,2.3,5.2,5.2V39.2z
	 M912.8,229.8c0,2.9-2.3,5.2-5.2,5.2h-4.2c-2.9,0-5.2-2.3-5.2-5.2v-15.5c0-2.9,2.3-5.2,5.2-5.2h4.2c2.9,0,5.2,2.3,5.2,5.2V229.8z
	 M912.8,39.2c0,2.9-2.3,5.2-5.2,5.2h-4.2c-2.9,0-5.2-2.3-5.2-5.2V23.7c0-2.9,2.3-5.2,5.2-5.2h4.2c2.9,0,5.2,2.3,5.2,5.2V39.2z
	 M945,229.8c0,2.9-2.3,5.2-5.2,5.2h-4.3c-2.9,0-5.2-2.3-5.2-5.2v-15.5c0-2.9,2.3-5.2,5.2-5.2h4.3c2.9,0,5.2,2.3,5.2,5.2V229.8z
	 M945,39.2c0,2.9-2.3,5.2-5.2,5.2h-4.3c-2.9,0-5.2-2.3-5.2-5.2V23.7c0-2.9,2.3-5.2,5.2-5.2h4.3c2.9,0,5.2,2.3,5.2,5.2V39.2z
	 M977.3,229.8c0,2.9-2.3,5.2-5.2,5.2h-4.3c-2.9,0-5.2-2.3-5.2-5.2v-15.5c0-2.9,2.3-5.2,5.2-5.2h4.3c2.9,0,5.2,2.3,5.2,5.2V229.8z
	 M977.3,39.2c0,2.9-2.3,5.2-5.2,5.2h-4.3c-2.9,0-5.2-2.3-5.2-5.2V23.7c0-2.9,2.3-5.2,5.2-5.2h4.3c2.9,0,5.2,2.3,5.2,5.2V39.2z
	 M1009.5,229.8c0,2.9-2.3,5.2-5.2,5.2h-4.3c-2.9,0-5.2-2.3-5.2-5.2v-15.5c0-2.9,2.3-5.2,5.2-5.2h4.3c2.9,0,5.2,2.3,5.2,5.2V229.8z
	 M1009.5,39.2c0,2.9-2.3,5.2-5.2,5.2h-4.3c-2.9,0-5.2-2.3-5.2-5.2V23.7c0-2.9,2.3-5.2,5.2-5.2h4.3c2.9,0,5.2,2.3,5.2,5.2V39.2z
	 M1041.8,229.8c0,2.9-2.3,5.2-5.2,5.2h-4.3c-2.9,0-5.2-2.3-5.2-5.2v-15.5c0-2.9,2.3-5.2,5.2-5.2h4.3c2.9,0,5.2,2.3,5.2,5.2V229.8z
	 M1041.8,39.2c0,2.9-2.3,5.2-5.2,5.2h-4.3c-2.9,0-5.2-2.3-5.2-5.2V23.7c0-2.9,2.3-5.2,5.2-5.2h4.3c2.9,0,5.2,2.3,5.2,5.2V39.2z
	 M1074,229.8c0,2.9-2.3,5.2-5.2,5.2h-4.2c-2.9,0-5.2-2.3-5.2-5.2v-15.5c0-2.9,2.3-5.2,5.2-5.2h4.2c2.9,0,5.2,2.3,5.2,5.2V229.8z
	 M1074,39.2c0,2.9-2.3,5.2-5.2,5.2h-4.2c-2.9,0-5.2-2.3-5.2-5.2V23.7c0-2.9,2.3-5.2,5.2-5.2h4.2c2.9,0,5.2,2.3,5.2,5.2V39.2z
	 M1106.2,229.8c0,2.9-2.3,5.2-5.2,5.2h-4.3c-2.9,0-5.2-2.3-5.2-5.2v-15.5c0-2.9,2.3-5.2,5.2-5.2h4.3c2.9,0,5.2,2.3,5.2,5.2V229.8z
	 M1106.2,39.2c0,2.9-2.3,5.2-5.2,5.2h-4.3c-2.9,0-5.2-2.3-5.2-5.2V23.7c0-2.9,2.3-5.2,5.2-5.2h4.3c2.9,0,5.2,2.3,5.2,5.2V39.2z
	 M1138.5,229.8c0,2.9-2.3,5.2-5.2,5.2h-4.3c-2.9,0-5.2-2.3-5.2-5.2v-15.5c0-2.9,2.3-5.2,5.2-5.2h4.3c2.9,0,5.2,2.3,5.2,5.2V229.8z
	 M1138.5,39.2c0,2.9-2.3,5.2-5.2,5.2h-4.3c-2.9,0-5.2-2.3-5.2-5.2V23.7c0-2.9,2.3-5.2,5.2-5.2h4.3c2.9,0,5.2,2.3,5.2,5.2V39.2z
	 M1170.7,229.8c0,2.9-2.3,5.2-5.2,5.2h-4.3c-2.9,0-5.2-2.3-5.2-5.2v-15.5c0-2.9,2.3-5.2,5.2-5.2h4.3c2.9,0,5.2,2.3,5.2,5.2V229.8z
	 M1170.7,39.2c0,2.9-2.3,5.2-5.2,5.2h-4.3c-2.9,0-5.2-2.3-5.2-5.2V23.7c0-2.9,2.3-5.2,5.2-5.2h4.3c2.9,0,5.2,2.3,5.2,5.2V39.2z
	 M1202.9,229.8c0,2.9-2.3,5.2-5.2,5.2h-4.3c-2.9,0-5.2-2.3-5.2-5.2v-15.5c0-2.9,2.3-5.2,5.2-5.2h4.3c2.9,0,5.2,2.3,5.2,5.2V229.8z
	 M1202.9,39.2c0,2.9-2.3,5.2-5.2,5.2h-4.3c-2.9,0-5.2-2.3-5.2-5.2V23.7c0-2.9,2.3-5.2,5.2-5.2h4.3c2.9,0,5.2,2.3,5.2,5.2V39.2z
	 M1235.2,229.8c0,2.9-2.3,5.2-5.2,5.2h-4.3c-2.9,0-5.2-2.3-5.2-5.2v-15.5c0-2.9,2.3-5.2,5.2-5.2h4.3c2.9,0,5.2,2.3,5.2,5.2V229.8z
	 M1235.2,39.2c0,2.9-2.3,5.2-5.2,5.2h-4.3c-2.9,0-5.2-2.3-5.2-5.2V23.7c0-2.9,2.3-5.2,5.2-5.2h4.3c2.9,0,5.2,2.3,5.2,5.2V39.2z
	 M1267.4,229.8c0,2.9-2.3,5.2-5.2,5.2h-4.3c-2.9,0-5.2-2.3-5.2-5.2v-15.5c0-2.9,2.3-5.2,5.2-5.2h4.3c2.9,0,5.2,2.3,5.2,5.2V229.8z
	 M1267.4,39.2c0,2.9-2.3,5.2-5.2,5.2h-4.3c-2.9,0-5.2-2.3-5.2-5.2V23.7c0-2.9,2.3-5.2,5.2-5.2h4.3c2.9,0,5.2,2.3,5.2,5.2V39.2z
	 M1299.6,39.2c0,2.9-2.3,5.2-5.2,5.2h-4.3c-2.9,0-5.2-2.3-5.2-5.2V23.7c0-2.9,2.3-5.2,5.2-5.2h4.3c2.9,0,5.2,2.3,5.2,5.2V39.2z
	 M1331.9,39.2c0,2.9-2.3,5.2-5.2,5.2h-4.3c-2.9,0-5.2-2.3-5.2-5.2V23.7c0-2.9,2.3-5.2,5.2-5.2h4.3c2.9,0,5.2,2.3,5.2,5.2V39.2z
	 M1364.1,39.2c0,2.9-2.3,5.2-5.2,5.2h-4.3c-2.9,0-5.2-2.3-5.2-5.2V23.7c0-2.9,2.3-5.2,5.2-5.2h4.3c2.9,0,5.2,2.3,5.2,5.2V39.2z
	 M1396.4,39.2c0,2.9-2.3,5.2-5.2,5.2h-4.3c-2.9,0-5.2-2.3-5.2-5.2V23.7c0-2.9,2.3-5.2,5.2-5.2h4.3c2.9,0,5.2,2.3,5.2,5.2V39.2z
	 M1428.6,39.2c0,2.9-2.3,5.2-5.2,5.2h-4.3c-2.9,0-5.2-2.3-5.2-5.2V23.7c0-2.9,2.3-5.2,5.2-5.2h4.3c2.9,0,5.2,2.3,5.2,5.2V39.2z
	 M1460.8,39.2c0,2.9-2.3,5.2-5.2,5.2h-4.3c-2.9,0-5.2-2.3-5.2-5.2V23.7c0-2.9,2.3-5.2,5.2-5.2h4.3c2.9,0,5.2,2.3,5.2,5.2V39.2z
	 M1493.1,39.2c0,2.9-2.3,5.2-5.2,5.2h-4.3c-2.9,0-5.2-2.3-5.2-5.2V23.7c0-2.9,2.3-5.2,5.2-5.2h4.3c2.9,0,5.2,2.3,5.2,5.2V39.2z"/>
</svg>
